<?xml version="1.0" encoding="UTF-8" standalone="no"?>
<!DOCTYPE svg PUBLIC "-//W3C//DTD SVG 1.1//EN"
 "http://www.w3.org/Graphics/SVG/1.1/DTD/svg11.dtd">
<!-- Generated by graphviz version 2.43.0 (0)
 -->
<!-- Title: %3 Pages: 1 -->
<svg width="683pt" height="395pt"
 viewBox="0.00 0.00 683.00 395.00" xmlns="http://www.w3.org/2000/svg" xmlns:xlink="http://www.w3.org/1999/xlink">
<g id="graph0" class="graph" transform="scale(1 1) rotate(0) translate(4 391)">
<title>%3</title>
<polygon fill="white" stroke="transparent" points="-4,4 -4,-391 679,-391 679,4 -4,4"/>
<!-- node0x7d7dd4e09030 -->
<g id="node1" class="node">
<title>node0x7d7dd4e09030</title>
<polygon fill="none" stroke="black" points="226.5,-340.5 226.5,-386.5 544.5,-386.5 544.5,-340.5 226.5,-340.5"/>
<text text-anchor="middle" x="385.5" y="-371.3" font-family="Helvetica,Arial,sans-serif" font-size="14.00">Онодеревянное?</text>
<polyline fill="none" stroke="black" points="226.5,-363.5 544.5,-363.5 "/>
<text text-anchor="middle" x="304" y="-348.3" font-family="Helvetica,Arial,sans-serif" font-size="14.00">left = 0x50d000000040</text>
<polyline fill="none" stroke="black" points="381.5,-340.5 381.5,-363.5 "/>
<text text-anchor="middle" x="463" y="-348.3" font-family="Helvetica,Arial,sans-serif" font-size="14.00">right = 0x50d0000002b0</text>
</g>
<!-- node0x50d000000040 -->
<g id="node2" class="node">
<title>node0x50d000000040</title>
<polygon fill="none" stroke="black" points="12.5,-170.5 12.5,-216.5 330.5,-216.5 330.5,-170.5 12.5,-170.5"/>
<text text-anchor="middle" x="171.5" y="-201.3" font-family="Helvetica,Arial,sans-serif" font-size="14.00">Оносколбасой?</text>
<polyline fill="none" stroke="black" points="12.5,-193.5 330.5,-193.5 "/>
<text text-anchor="middle" x="90" y="-178.3" font-family="Helvetica,Arial,sans-serif" font-size="14.00">left = 0x50d000000110</text>
<polyline fill="none" stroke="black" points="167.5,-170.5 167.5,-193.5 "/>
<text text-anchor="middle" x="249" y="-178.3" font-family="Helvetica,Arial,sans-serif" font-size="14.00">right = 0x50d0000001e0</text>
</g>
<!-- node0x7d7dd4e09030&#45;&gt;node0x50d000000040 -->
<g id="edge1" class="edge">
<title>node0x7d7dd4e09030:f1&#45;&gt;node0x50d000000040:f0</title>
<path fill="none" stroke="black" d="M303.5,-340C303.5,-327.42 332.89,-244.21 334.68,-215.34"/>
<polygon fill="black" stroke="black" points="337.9,-213.94 331.5,-205.5 331.24,-216.09 337.9,-213.94"/>
<text text-anchor="middle" x="335.5" y="-274.8" font-family="Times,serif" font-size="14.00">Нет</text>
</g>
<!-- node0x50d0000002b0 -->
<g id="node5" class="node">
<title>node0x50d0000002b0</title>
<polygon fill="none" stroke="black" points="348.5,-170.5 348.5,-216.5 666.5,-216.5 666.5,-170.5 348.5,-170.5"/>
<text text-anchor="middle" x="507.5" y="-201.3" font-family="Helvetica,Arial,sans-serif" font-size="14.00">Оносрубленно?</text>
<polyline fill="none" stroke="black" points="348.5,-193.5 666.5,-193.5 "/>
<text text-anchor="middle" x="426" y="-178.3" font-family="Helvetica,Arial,sans-serif" font-size="14.00">left = 0x50d000000380</text>
<polyline fill="none" stroke="black" points="503.5,-170.5 503.5,-193.5 "/>
<text text-anchor="middle" x="585" y="-178.3" font-family="Helvetica,Arial,sans-serif" font-size="14.00">right = 0x50d000000450</text>
</g>
<!-- node0x7d7dd4e09030&#45;&gt;node0x50d0000002b0 -->
<g id="edge4" class="edge">
<title>node0x7d7dd4e09030:f2&#45;&gt;node0x50d0000002b0:f0</title>
<path fill="none" stroke="black" d="M463.5,-340C463.5,-285.46 502.33,-276.08 507.04,-227.01"/>
<polygon fill="black" stroke="black" points="510.53,-227.15 507.5,-217 503.54,-226.83 510.53,-227.15"/>
<text text-anchor="middle" x="499.5" y="-274.8" font-family="Times,serif" font-size="14.00">Да</text>
</g>
<!-- node0x50d000000110 -->
<g id="node3" class="node">
<title>node0x50d000000110</title>
<polygon fill="none" stroke="black" points="0,-0.5 0,-46.5 155,-46.5 155,-0.5 0,-0.5"/>
<text text-anchor="middle" x="77.5" y="-31.3" font-family="Helvetica,Arial,sans-serif" font-size="14.00">Хзчто</text>
<polyline fill="none" stroke="black" points="0,-23.5 155,-23.5 "/>
<text text-anchor="middle" x="37" y="-8.3" font-family="Helvetica,Arial,sans-serif" font-size="14.00">left = (nil)</text>
<polyline fill="none" stroke="black" points="74,-0.5 74,-23.5 "/>
<text text-anchor="middle" x="114.5" y="-8.3" font-family="Helvetica,Arial,sans-serif" font-size="14.00">right = (nil)</text>
</g>
<!-- node0x50d000000040&#45;&gt;node0x50d000000110 -->
<g id="edge2" class="edge">
<title>node0x50d000000040:f1&#45;&gt;node0x50d000000110:f0</title>
<path fill="none" stroke="black" d="M89.5,-170C89.5,-118.61 79,-103.79 77.64,-57.12"/>
<polygon fill="black" stroke="black" points="81.14,-56.95 77.5,-47 74.14,-57.05 81.14,-56.95"/>
<text text-anchor="middle" x="99.5" y="-104.8" font-family="Times,serif" font-size="14.00">Нет</text>
</g>
<!-- node0x50d0000001e0 -->
<g id="node4" class="node">
<title>node0x50d0000001e0</title>
<polygon fill="none" stroke="black" points="173,-0.5 173,-46.5 328,-46.5 328,-0.5 173,-0.5"/>
<text text-anchor="middle" x="250.5" y="-31.3" font-family="Helvetica,Arial,sans-serif" font-size="14.00">бутер</text>
<polyline fill="none" stroke="black" points="173,-23.5 328,-23.5 "/>
<text text-anchor="middle" x="210" y="-8.3" font-family="Helvetica,Arial,sans-serif" font-size="14.00">left = (nil)</text>
<polyline fill="none" stroke="black" points="247,-0.5 247,-23.5 "/>
<text text-anchor="middle" x="287.5" y="-8.3" font-family="Helvetica,Arial,sans-serif" font-size="14.00">right = (nil)</text>
</g>
<!-- node0x50d000000040&#45;&gt;node0x50d0000001e0 -->
<g id="edge3" class="edge">
<title>node0x50d000000040:f2&#45;&gt;node0x50d0000001e0:f0</title>
<path fill="none" stroke="black" d="M249.5,-170C249.5,-118.86 250.38,-103.6 250.49,-57.08"/>
<polygon fill="black" stroke="black" points="253.99,-57 250.5,-47 246.99,-57 253.99,-57"/>
<text text-anchor="middle" x="260.5" y="-104.8" font-family="Times,serif" font-size="14.00">Да</text>
</g>
<!-- node0x50d000000380 -->
<g id="node6" class="node">
<title>node0x50d000000380</title>
<polygon fill="none" stroke="black" points="347,-0.5 347,-46.5 502,-46.5 502,-0.5 347,-0.5"/>
<text text-anchor="middle" x="424.5" y="-31.3" font-family="Helvetica,Arial,sans-serif" font-size="14.00">дерево</text>
<polyline fill="none" stroke="black" points="347,-23.5 502,-23.5 "/>
<text text-anchor="middle" x="384" y="-8.3" font-family="Helvetica,Arial,sans-serif" font-size="14.00">left = (nil)</text>
<polyline fill="none" stroke="black" points="421,-0.5 421,-23.5 "/>
<text text-anchor="middle" x="461.5" y="-8.3" font-family="Helvetica,Arial,sans-serif" font-size="14.00">right = (nil)</text>
</g>
<!-- node0x50d0000002b0&#45;&gt;node0x50d000000380 -->
<g id="edge5" class="edge">
<title>node0x50d0000002b0:f1&#45;&gt;node0x50d000000380:f0</title>
<path fill="none" stroke="black" d="M425.5,-170C425.5,-118.86 424.62,-103.6 424.51,-57.08"/>
<polygon fill="black" stroke="black" points="428.01,-57 424.5,-47 421.01,-57 428.01,-57"/>
<text text-anchor="middle" x="439.5" y="-104.8" font-family="Times,serif" font-size="14.00">Нет</text>
</g>
<!-- node0x50d000000450 -->
<g id="node7" class="node">
<title>node0x50d000000450</title>
<polygon fill="none" stroke="black" points="520,-0.5 520,-46.5 675,-46.5 675,-0.5 520,-0.5"/>
<text text-anchor="middle" x="597.5" y="-31.3" font-family="Helvetica,Arial,sans-serif" font-size="14.00">пень</text>
<polyline fill="none" stroke="black" points="520,-23.5 675,-23.5 "/>
<text text-anchor="middle" x="557" y="-8.3" font-family="Helvetica,Arial,sans-serif" font-size="14.00">left = (nil)</text>
<polyline fill="none" stroke="black" points="594,-0.5 594,-23.5 "/>
<text text-anchor="middle" x="634.5" y="-8.3" font-family="Helvetica,Arial,sans-serif" font-size="14.00">right = (nil)</text>
</g>
<!-- node0x50d0000002b0&#45;&gt;node0x50d000000450 -->
<g id="edge6" class="edge">
<title>node0x50d0000002b0:f2&#45;&gt;node0x50d000000450:f0</title>
<path fill="none" stroke="black" d="M585.5,-170C585.5,-118.61 596,-103.79 597.36,-57.12"/>
<polygon fill="black" stroke="black" points="600.86,-57.05 597.5,-47 593.86,-56.95 600.86,-57.05"/>
<text text-anchor="middle" x="602.5" y="-104.8" font-family="Times,serif" font-size="14.00">Да</text>
</g>
</g>
</svg>
